HIERARCHY
ROOT Hips
{
	OFFSET -0.179506 -22.333345 2.821913
	CHANNELS 6 Xposition Yposition Zposition Zrotation Yrotation Xrotation 
	JOINT LeftUpLeg
	{
		OFFSET 6.951974 -9.140623 -0.681533
		CHANNELS 3 Zrotation Yrotation Xrotation
		JOINT LeftLeg
		{
			OFFSET 3.427654 -37.519855 -0.449580
			CHANNELS 3 Zrotation Yrotation Xrotation
			JOINT LeftFoot
			{
				OFFSET -1.359570 -39.796059 -4.369333
				CHANNELS 3 Zrotation Yrotation Xrotation
				JOINT LeftToe
				{
					OFFSET 2.635814 -5.579078 11.928840
					CHANNELS 3 Zrotation Yrotation Xrotation
					End Site
					{
						OFFSET 0.000000 0.000000 0.000000
					}
				}
			}
		}
	}
	JOINT RightUpLeg
	{
		OFFSET -6.767048 -9.052170 -0.431982
		CHANNELS 3 Zrotation Yrotation Xrotation
		JOINT RightLeg
		{
			OFFSET -3.829005 -38.256897 -0.885003
			CHANNELS 3 Zrotation Yrotation Xrotation
			JOINT RightFoot
			{
				OFFSET 1.577377 -39.841461 -4.231180
				CHANNELS 3 Zrotation Yrotation Xrotation
				JOINT RightToe
				{
					OFFSET -2.537174 -4.814398 12.334795
					CHANNELS 3 Zrotation Yrotation Xrotation
					End Site
					{
						OFFSET 0.000000 0.000000 0.000000
					}
				}
			}
		}
	}
	JOINT Spine
	{
		OFFSET -0.253288 10.896323 -2.669631
		CHANNELS 3 Zrotation Yrotation Xrotation
		JOINT Spine1
		{
			OFFSET 0.548704 13.518043 0.109247
			CHANNELS 3 Zrotation Yrotation Xrotation
			JOINT Spine2
			{
				OFFSET 0.145701 5.292222 2.542457
				CHANNELS 3 Zrotation Yrotation Xrotation
				JOINT Neck
				{
					OFFSET -0.277840 21.387037 -4.285703
					CHANNELS 3 Zrotation Yrotation Xrotation
					JOINT Head
					{
						OFFSET 0.515184 6.496960 5.134897
						CHANNELS 3 Zrotation Yrotation Xrotation
						End Site
						{
							OFFSET 0.000000 0.000000 0.000000
						}
					}
				}
				JOINT LeftShoulder
				{
					OFFSET 7.884473 12.174932 -3.408961
					CHANNELS 3 Zrotation Yrotation Xrotation
					JOINT LeftArm
					{
						OFFSET 9.097692 3.046888 -0.886815
						CHANNELS 3 Zrotation Yrotation Xrotation
						JOINT LeftForeArm
						{
							OFFSET 25.961220 -1.277207 -2.745643
							CHANNELS 3 Zrotation Yrotation Xrotation
							JOINT LeftHand
							{
								OFFSET 24.923361 0.898606 -0.117091
								CHANNELS 3 Zrotation Yrotation Xrotation
								End Site
								{
									OFFSET 0.000000 0.000000 0.000000
								}
							}
						}
					}
				}
				JOINT RightShoulder
				{
					OFFSET -8.175920 11.883285 -3.861528
					CHANNELS 3 Zrotation Yrotation Xrotation
					JOINT RightArm
					{
						OFFSET -9.601238 3.255117 -0.914307
						CHANNELS 3 Zrotation Yrotation Xrotation
						JOINT RightForeArm
						{
							OFFSET -25.374195 -1.332924 -2.140099
							CHANNELS 3 Zrotation Yrotation Xrotation
							JOINT RightHand
							{
								OFFSET -25.529810 0.777228 -0.555919
								CHANNELS 3 Zrotation Yrotation Xrotation
								End Site
								{
									OFFSET 0.000000 0.000000 0.000000
								}
							}
						}
					}
				}
			}
		}
	}
}
MOTION
Frames: 18
Frame Time: 0.033333
301.925781 -296.835297 83.462128 -109.678094 2.519763 76.757191 0.386932 3.519379 22.844073 -10.252965 -16.581222 28.880008 -0.599844 19.050893 -36.630560 nan nan nan -7.879716 -0.918348 -36.224913 4.576671 -8.686404 33.082683 -1.510214 -13.787570 -16.679702 nan nan nan -3.326632 -10.410854 17.551322 3.160443 -5.417328 9.622936 -0.456077 -5.153707 -2.353911 -2.053865 0.442773 4.555986 6.051021 1.398185 -2.615848 -26.705392 -1.874140 1.483047 -49.271871 -26.484058 18.312844 40.554424 -71.670840 -36.654883 5.587746 -22.592241 -4.067772 24.810439 -4.295427 1.878395 57.529405 -16.332049 8.656787 -9.335526 19.151127 1.538921 4.264899 10.341267 -0.251055 
300.823883 -295.976624 82.654793 -109.644326 2.174040 76.912028 0.408050 3.987473 23.918932 -9.996269 -16.576858 28.648628 -0.625616 19.258471 -38.073986 nan nan nan -8.211751 -0.749756 -36.176511 4.539491 -7.813892 31.141987 -1.564997 -13.898192 -16.618889 nan nan nan -3.551866 -10.294051 17.441834 3.205176 -5.428917 10.045945 -0.602949 -5.056962 -2.923411 -1.715991 0.490900 4.301552 5.985867 1.078211 -2.326086 -27.108653 -1.643849 1.599056 -49.536024 -26.655051 18.885166 36.630854 -70.534937 -33.771916 4.803677 -22.460783 -4.123237 25.385203 -3.955580 1.907672 57.888762 -15.790103 9.308912 -9.893933 18.201919 0.946200 4.124770 10.207806 -0.599544 
299.760040 -295.142975 81.929901 -109.524635 1.995792 77.400611 0.638096 4.230598 24.356355 -9.932340 -16.297396 28.861783 -0.722137 19.453369 -39.367487 nan nan nan -8.387910 -0.478584 -36.197649 4.309392 -6.992005 28.878011 -1.794275 -14.131367 -16.164965 nan nan nan -3.494527 -10.223979 17.072490 3.263345 -5.430299 10.144615 -0.691248 -4.989837 -3.205802 -1.539609 0.191467 4.022611 5.871005 0.876978 -2.225364 -27.502568 -1.642654 1.784500 -49.967289 -26.666867 19.246440 33.411457 -69.283155 -30.957224 2.977708 -21.688988 -3.862973 25.651823 -3.746142 1.768253 58.225740 -15.352462 9.574021 -10.082418 17.669276 0.714703 5.164448 9.604365 -0.942283 
298.614136 -294.269806 81.268936 -109.199870 1.864914 77.982520 1.018421 4.401594 24.806555 -9.965780 -16.290034 28.991803 -0.913651 19.745585 -40.631600 nan nan nan -8.768440 -0.541258 -36.238462 4.350181 -6.443052 26.847519 -1.684587 -14.077751 -15.878762 nan nan nan -3.415371 -10.139099 16.429443 3.396267 -5.425758 10.150005 -0.696731 -5.048233 -3.188984 -1.499914 -0.309655 3.753181 5.771895 0.868390 -2.148604 -27.969878 -1.876021 2.113027 -50.369275 -26.452077 19.581051 30.446915 -68.086227 -28.027507 4.397102 -21.431983 -4.217381 25.940801 -3.466887 1.466720 58.440253 -15.028738 9.559353 -10.192469 17.163708 0.430449 3.618267 9.723869 -1.061981 
297.479553 -293.376648 80.717949 -109.095095 1.899647 78.568764 1.673352 4.651100 25.357506 -10.001872 -16.360153 28.882593 -1.147702 19.877827 -41.614980 nan nan nan -8.888012 -0.628829 -36.451917 4.520822 -5.909417 25.148498 -1.201090 -13.786328 -15.638446 nan nan nan -3.178750 -10.156495 15.920413 3.560655 -5.263670 10.032423 -0.695003 -5.090674 -3.201868 -1.504442 -0.673513 3.390058 5.650231 0.794452 -1.904411 -28.523881 -2.140023 2.369436 -50.812688 -26.212977 20.028206 27.580756 -66.666503 -25.339737 5.735417 -21.489802 -4.925792 26.290854 -3.062889 1.238457 58.560981 -14.643249 9.582309 -10.335618 16.660936 0.050685 1.905193 9.948713 -1.278729 
296.296234 -292.428406 80.249695 -108.852825 1.968527 79.083463 2.515777 4.823881 26.160065 -10.049044 -16.860601 28.515181 -1.223130 19.753051 -42.041299 nan nan nan -8.887400 -0.886512 -36.628060 4.620107 -5.443507 23.856977 -0.892629 -13.525480 -15.523976 nan nan nan -3.022036 -10.209026 15.482998 3.784109 -5.189884 9.854996 -0.628562 -5.229491 -3.146241 -1.581970 -0.862795 2.932402 5.588519 0.779462 -1.556192 -28.793931 -2.269705 2.623702 -50.676324 -26.091510 19.788067 24.624775 -65.498646 -22.911258 3.233762 -20.394178 -3.756940 26.591570 -2.813298 1.215398 58.524931 -13.830719 9.361882 -10.206314 16.277933 -0.367429 3.769054 8.932511 -1.097599 
295.068756 -291.396423 79.888542 -108.658547 2.068123 79.491403 3.531204 4.998750 27.174927 -10.039121 -17.609999 28.064602 -1.507985 19.431543 -42.227641 nan nan nan -8.871302 -0.952879 -36.601384 4.769052 -5.313872 22.792171 -0.610677 -13.165394 -15.631764 nan nan nan -2.974303 -10.282583 15.110378 4.021581 -5.090865 9.819540 -0.492502 -5.326420 -3.155925 -1.593263 -0.769534 2.714197 5.579602 0.631597 -1.601219 -29.180536 -2.416715 2.908936 -50.808654 -25.763390 19.686642 22.307977 -64.102998 -20.854615 2.480266 -20.259983 -3.063884 27.041829 -2.384996 1.224704 58.338698 -13.207692 9.087462 -10.035256 16.120906 -0.786706 4.189271 8.896327 -1.017546 
293.822601 -290.520172 79.576706 -108.403608 1.597385 80.195308 3.441856 5.041195 27.670996 -9.712502 -18.089990 27.815403 -1.588780 19.242478 -42.138358 nan nan nan -9.360666 -1.300727 -36.850921 4.818224 -4.894197 21.843291 -0.343789 -12.756949 -15.748738 nan nan nan -3.246580 -10.267279 14.403844 4.133372 -5.260363 10.068003 -0.389870 -5.317088 -3.466970 -1.774516 -0.837580 2.433215 5.725716 0.720878 -1.426040 -29.440015 -2.658152 3.171794 -51.552903 -25.282139 20.233143 20.689474 -62.218441 -19.201944 4.466792 -20.912250 -3.693921 27.545567 -1.893331 1.275582 58.181262 -12.734823 9.307427 -10.107508 16.080304 -1.673281 2.033896 9.928182 -1.161836 
292.553436 -289.484344 79.345375 -108.339493 1.359050 80.820019 3.978302 5.046378 28.267473 -9.828284 -18.535238 27.637015 -1.870269 18.654499 -41.633370 nan nan nan -9.404004 -1.513729 -37.088430 4.850638 -4.624039 21.372394 -0.201421 -12.400037 -16.003232 nan nan nan -3.457445 -10.327015 13.782075 4.255060 -5.318557 10.310623 -0.234486 -5.325682 -3.768189 -1.739559 -0.661261 1.919596 5.657950 0.649810 -0.946644 -29.521368 -2.625970 3.456800 -51.712508 -24.966655 19.862175 19.311286 -60.737339 -18.209823 1.042345 -20.007984 -0.601830 28.131740 -1.570762 1.743303 57.800268 -11.704169 9.069390 -9.760446 16.111119 -2.447860 4.735165 9.485439 -0.101665 
291.247284 -288.424377 79.196373 -108.373912 1.109630 81.409054 4.622508 5.034118 28.915419 -9.967144 -18.526465 27.279971 -2.153998 17.682036 -40.584958 nan nan nan -9.404720 -1.548138 -37.387357 4.700488 -4.686485 21.469673 -0.288088 -11.934860 -16.168286 nan nan nan -3.599943 -10.454059 13.158494 4.304976 -5.314388 10.592957 -0.130949 -5.326591 -4.115699 -1.502654 -0.319198 1.397644 5.377676 0.286124 -0.564590 -29.543022 -2.664183 3.550778 -52.037131 -24.469894 19.874422 17.568211 -58.888838 -17.261885 -0.227165 -20.262177 1.239897 28.739964 -1.011438 2.087653 57.492777 -11.162308 9.518813 -9.463737 16.189515 -2.256491 6.256270 10.591437 0.994523 
289.846283 -287.360962 79.109459 -108.279805 0.929816 81.987989 5.309844 4.856943 29.499016 -10.128066 -18.428891 27.145851 -2.454251 16.460401 -39.257451 nan nan nan -9.433855 -1.547455 -37.568905 4.533202 -5.098456 21.892252 -0.416396 -11.504917 -16.493490 nan nan nan -3.554592 -10.730940 12.337047 4.326567 -5.408208 11.247163 -0.074070 -5.369459 -4.731399 -1.193932 0.258701 1.065123 4.960020 -0.198169 -0.288030 -29.602312 -2.708712 3.406667 -52.468809 -23.621218 20.159120 16.826934 -56.662205 -15.997636 -2.470526 -20.533928 3.839645 29.318189 -0.115997 2.367659 57.327923 -11.208279 10.605725 -9.638700 16.494496 -1.925299 9.080943 12.552693 1.659242 
288.411896 -286.352112 79.133667 -108.226079 0.616830 82.428157 5.626143 4.724928 30.102462 -10.470354 -18.935883 27.374679 -2.856253 15.833298 -37.689064 nan nan nan -9.457425 -1.660895 -37.715185 4.528332 -5.132766 22.755175 -0.520697 -11.579715 -16.821272 nan nan nan -3.859059 -10.815346 11.956192 4.578656 -5.589533 11.096089 0.112392 -5.193896 -4.736247 -0.960107 0.767596 0.701888 4.591935 -0.711088 0.072683 -29.046142 -2.571749 3.369661 -53.284597 -23.619618 20.339581 12.685385 -54.028179 -12.081272 -1.615625 -20.701040 5.426061 29.906859 0.507742 2.344047 56.537952 -10.917078 11.154923 -9.393888 16.867483 -3.016525 8.018118 13.817749 1.103390 
287.361938 -285.908508 79.503250 -109.031652 -0.301907 82.904612 3.972775 4.691462 30.051823 -10.140837 -17.986803 27.962242 -2.151861 15.826950 -35.815980 nan nan nan -10.101617 -1.674855 -38.137579 5.597893 -4.041344 23.063720 -0.527228 -11.999330 -15.252111 nan nan nan -4.063079 -10.568431 13.127029 4.667862 -5.213629 10.094691 0.056919 -4.989950 -5.620591 -1.550643 -0.123572 -0.194116 4.507660 0.101775 1.138249 -29.785904 -2.618968 3.096753 -53.229313 -23.109974 21.852580 12.774561 -51.341493 -10.525876 -2.058085 -19.267024 5.529285 30.573746 0.301289 2.035785 55.722518 -9.426370 11.827494 -9.771851 16.679849 -6.242063 6.289977 11.388776 -1.126688 
285.754883 -284.827057 79.708031 -109.032033 -0.441395 83.076550 4.387517 4.484040 31.089945 -10.117774 -18.156463 27.918968 -2.277532 15.116024 -33.688195 nan nan nan -10.131089 -1.390929 -37.999810 6.094328 -4.142673 24.695444 -0.843015 -11.985444 -15.971592 nan nan nan -4.118714 -10.699739 12.690206 4.791649 -5.210068 10.253537 0.248966 -5.147566 -5.877352 -1.522601 0.193915 -0.088158 4.188759 0.168449 1.284828 -29.623383 -2.647906 2.926041 -54.044046 -22.382034 22.002775 11.981812 -48.456327 -9.404707 -5.489609 -18.709738 7.606041 30.637574 0.766845 2.102588 55.489758 -9.275695 12.795109 -9.240231 17.268752 -4.543367 10.659597 12.982551 -0.191940 
284.404022 -283.645874 79.962852 -108.859668 -0.472933 83.089985 5.266790 4.178762 31.530052 -10.733019 -18.487986 28.879837 -2.857880 14.432488 -31.498457 nan nan nan -9.825421 -0.913811 -37.526197 6.337445 -3.930668 26.086282 -1.085603 -12.466397 -16.020933 nan nan nan -4.683464 -10.929976 13.564256 5.244057 -5.077508 8.643615 0.633034 -5.163463 -5.059309 -1.489417 0.397266 -0.831687 3.832319 0.212390 2.073289 -29.237503 -2.408564 2.776335 -55.098738 -22.057701 22.566001 10.625718 -45.536636 -7.209712 -4.245346 -18.351355 5.907093 30.854854 0.648189 1.649570 54.968797 -7.627016 12.380936 -9.088863 17.541536 -6.958264 7.154649 10.949108 -2.439716 
282.891388 -282.498230 80.099792 -109.055566 -0.389658 83.934948 5.906075 4.018973 30.830840 -10.922407 -18.018426 30.306192 -2.776219 13.455453 -28.816897 nan nan nan -9.303304 -0.711976 -38.280565 5.858616 -5.243032 28.051501 -1.587521 -11.420471 -14.850243 nan nan nan -4.373616 -11.110472 12.595887 5.540424 -4.984809 8.807251 0.718303 -5.220669 -5.653485 -1.494982 0.733010 -0.421112 3.340246 0.067061 2.132921 -29.168319 -2.482852 2.967960 -55.514425 -21.147928 22.635693 9.679613 -42.821562 -5.985969 -4.149857 -18.695362 5.985928 30.611164 0.940507 1.827559 54.962914 -7.420085 12.869667 -8.834145 18.694415 -6.045783 6.591972 12.182982 -3.351836 
281.428406 -281.372955 80.279289 -109.107219 -0.283148 84.476155 6.387486 3.539705 30.010662 -11.166886 -17.324448 32.176824 -3.145785 12.483364 -25.666640 nan nan nan -8.957748 -0.450051 -38.647390 5.449038 -6.188866 29.554909 -1.719084 -10.475679 -13.464798 nan nan nan -3.963891 -11.396300 12.459455 5.722585 -4.909226 8.278352 0.774279 -5.397718 -5.890354 -1.528588 0.806870 -0.650736 2.805491 0.256649 2.540608 -29.491693 -2.667066 2.692546 -55.845172 -19.702197 23.262219 10.119374 -40.184897 -4.863314 -2.930388 -18.508849 4.351950 30.587199 1.403885 1.691601 54.876283 -7.182939 13.514671 -8.960547 19.942675 -6.005666 5.287062 12.834991 -4.103522 
280.022736 -280.264191 80.491547 -109.176662 -0.051468 85.258279 6.798275 2.989210 28.278203 -11.413735 -16.329346 34.860660 -3.311188 11.561364 -21.875268 nan nan nan -8.615907 -0.186257 -39.392413 5.362550 -6.834134 31.189020 -1.918800 -9.471245 -12.736690 nan nan nan -3.384097 -11.571771 12.071148 5.941696 -4.975838 7.672010 0.884568 -5.485917 -5.973908 -1.872527 0.943336 -0.752315 2.697508 0.493128 2.628624 -29.639465 -2.960455 2.681807 -55.924819 -18.914640 23.353410 8.826302 -37.257403 -3.076780 -1.938418 -18.063519 4.597971 30.675185 1.639159 1.637858 54.230226 -6.376942 13.325452 -8.267942 21.237543 -6.004037 4.106177 13.154340 -3.996248 
